<svg width="550" height="400" viewBox="0 0 550 400" fill="none" xmlns="http://www.w3.org/2000/svg">
<path d="M114.585 69.4695L115.92 75.2742L147.576 81.6002L114.585 69.4695Z" fill="#BCBEC0"/>
<path d="M134.33 326.887V335.047C134.33 335.218 134.404 335.381 134.535 335.502C134.666 335.623 134.843 335.691 135.029 335.691H139.615C139.801 335.691 139.979 335.623 140.11 335.502C140.241 335.381 140.314 335.218 140.314 335.047C140.314 334.876 140.388 334.712 140.519 334.591C140.65 334.47 140.828 334.402 141.013 334.402H142.303C142.303 334.402 142.722 335.339 144.882 335.691H153.35C153.616 335.693 153.875 335.618 154.092 335.476C154.309 335.335 154.473 335.134 154.56 334.903C154.647 334.671 154.653 334.421 154.577 334.186C154.501 333.951 154.348 333.744 154.138 333.594C152.918 332.692 150.453 331.837 145.517 331.702C144.1 331.483 142.794 330.855 141.789 329.907C140.784 328.96 140.132 327.742 139.927 326.43L134.33 326.887Z" fill="#0C1C22"/>
<path d="M110.615 319.302L106.467 324.796C106.255 325.077 106.173 325.425 106.239 325.762C106.304 326.099 106.512 326.398 106.816 326.594L109.427 328.27C109.732 328.465 110.109 328.54 110.474 328.48C110.84 328.419 111.165 328.228 111.377 327.947L113.016 329.002C113.016 329.002 112.781 329.992 114.338 331.421L121.288 335.884C121.505 336.028 121.766 336.105 122.034 336.104C122.301 336.104 122.562 336.025 122.778 335.879C122.994 335.734 123.155 335.529 123.238 335.294C123.32 335.06 123.32 334.807 123.238 334.572C122.793 333.19 121.332 331.169 117.336 328.48C117.336 328.48 113.182 325.347 115.367 321L110.615 319.302Z" fill="#0C1C22"/>
<path d="M138.389 125.016C138.52 125.468 138.796 125.874 139.18 126.181C139.564 126.488 140.038 126.682 140.543 126.738C143.904 127.119 145.53 128.495 145.53 128.495C153.23 132.683 146.915 143.033 146.915 143.033C143.44 149.066 151.324 155.967 151.324 155.967C159.582 164.595 150.009 167.576 150.009 167.576L106.727 178.149C92.4523 172.127 93.6085 162.644 93.6085 162.644C93.6085 162.644 93.4751 152.757 105.634 143.519C105.634 143.519 111.117 139.577 111.65 133.169C111.65 133.169 114.147 111.397 134.133 120.324C135.149 120.771 136.052 121.41 136.782 122.201C137.512 122.991 138.053 123.914 138.37 124.91C138.37 124.945 138.383 124.981 138.389 125.016Z" fill="#BA3236"/>
<path d="M152.359 170.452L152.251 170.265C155.123 168.818 156.87 167.02 157.454 164.911C158.223 162.123 156.819 159.264 155.459 157.349C154.108 155.568 152.436 154.013 150.517 152.751C148.44 151.164 146.766 149.176 145.613 146.928L145.829 146.858C146.967 149.067 148.614 151.02 150.657 152.581C152.598 153.858 154.287 155.433 155.65 157.238C157.6 160.026 158.305 162.697 157.677 164.964C157.079 167.102 155.288 168.947 152.359 170.452Z" fill="#BA3236"/>
<path d="M93.5005 162.691C93.456 162.609 88.6724 154.35 97.0517 146.923C98.028 146.103 99.0923 145.377 100.228 144.755C101.791 143.842 104.84 141.54 107.674 136.409C108.838 134.24 109.672 131.934 110.151 129.555C110.939 125.865 113.963 117.137 124.96 115.82C125.093 115.82 137.341 115.333 137.926 123.575H137.697C137.132 115.544 125.099 116.013 124.991 116.019C114.535 117.272 111.352 125.057 110.38 129.585C109.889 131.98 109.038 134.3 107.851 136.479C104.993 141.657 101.912 143.982 100.33 144.908C99.2163 145.526 98.1715 146.244 97.2106 147.052C88.9519 154.367 93.6593 162.486 93.7038 162.568L93.5005 162.691Z" fill="#BA3236"/>
<path d="M105.12 182.53C104.986 182.46 92.0902 175.355 94.1231 165.543L94.3518 165.59C92.3506 175.255 105.101 182.278 105.228 182.343L105.12 182.53Z" fill="#BA3236"/>
<path d="M110.145 319.231C110.145 319.231 112.311 322.986 115.227 323.461C115.227 323.461 119.35 308.12 123.651 300.534C123.651 300.534 137.627 277.919 141.699 274.398C141.699 274.398 156.889 261.02 148.979 241.538C148.979 241.538 141.75 224.803 142.303 213.334L137.22 223.228L129.947 247.185L113.08 244.215L124.045 273.127C124.045 273.127 115.684 282.499 113.054 304.582C113.029 304.588 111.174 317.023 110.145 319.231Z" fill="#BA3236"/>
<path opacity="0.2" d="M110.145 319.231C110.145 319.231 112.311 322.986 115.227 323.461C115.227 323.461 119.35 308.12 123.651 300.534C123.651 300.534 137.627 277.919 141.699 274.398C141.699 274.398 156.889 261.02 148.979 241.538C148.979 241.538 141.75 224.803 142.303 213.334L137.22 223.228L129.947 247.185L113.08 244.215L124.045 273.127C124.045 273.127 115.684 282.499 113.054 304.582C113.029 304.588 111.174 317.023 110.145 319.231Z" fill="black"/>
<path d="M133.638 187.849C135.581 177.212 124.947 159.253 124.947 159.253C107.21 162.644 111.466 171.893 111.466 171.893L108.169 209.111C108.169 209.111 99.9105 221.154 101.53 232.477C102.712 240.712 111.06 246.535 119.865 244.033C121.303 243.644 122.703 243.145 124.051 242.54C124.051 242.54 138.415 237.075 133.784 212.567L133.638 187.849Z" fill="#0C1C22"/>
<path d="M483.613 201.649L481.834 212.45L430.917 221.131L483.613 201.649Z" fill="#BCBEC0"/>
<path d="M356.938 172.045C356.938 172.045 379.605 181.306 377.515 191.562C377.515 191.562 380.914 196.248 356.938 209.369V172.045Z" fill="#BA3236"/>
<path opacity="0.2" d="M356.938 172.045C356.938 172.045 379.605 181.306 377.515 191.562C377.515 191.562 380.914 196.248 356.938 209.369V172.045Z" fill="black"/>
<path d="M170.757 197.432C170.757 197.432 157.302 185.43 172.828 178.149L172.574 198.984L170.757 197.432Z" fill="#BA3236"/>
<path opacity="0.2" d="M170.757 197.432C170.757 197.432 157.302 185.43 172.828 178.149L172.574 198.984L170.757 197.432Z" fill="black"/>
<path d="M316.922 129.561H171.557V280.73H316.922V129.561Z" fill="#BCBEC0"/>
<path d="M356.932 149.746H184.028V300.915H356.932V149.746Z" fill="#CCCCCC"/>
<path d="M238.662 171.167H213.696C211.604 171.167 209.909 172.73 209.909 174.658V174.664C209.909 176.592 211.604 178.155 213.696 178.155H238.662C240.753 178.155 242.448 176.592 242.448 174.664V174.658C242.448 172.73 240.753 171.167 238.662 171.167Z" fill="#BCBEC0"/>
<path d="M280.228 189.067H200.628C198.537 189.067 196.841 190.63 196.841 192.558V192.564C196.841 194.492 198.537 196.055 200.628 196.055H280.228C282.319 196.055 284.015 194.492 284.015 192.564V192.558C284.015 190.63 282.319 189.067 280.228 189.067Z" fill="#BCBEC0"/>
<path d="M246.813 204.027H200.628C198.537 204.027 196.841 205.59 196.841 207.518V207.524C196.841 209.452 198.537 211.015 200.628 211.015H246.813C248.904 211.015 250.599 209.452 250.599 207.524V207.518C250.599 205.59 248.904 204.027 246.813 204.027Z" fill="#BCBEC0"/>
<path d="M292.006 204.027H265.401C263.31 204.027 261.615 205.59 261.615 207.518V207.524C261.615 209.452 263.31 211.015 265.401 211.015H292.006C294.098 211.015 295.793 209.452 295.793 207.524V207.518C295.793 205.59 294.098 204.027 292.006 204.027Z" fill="#BCBEC0"/>
<path d="M307.025 204.027H303.619C301.528 204.027 299.833 205.59 299.833 207.518V207.524C299.833 209.452 301.528 211.015 303.619 211.015H307.025C309.116 211.015 310.811 209.452 310.811 207.524V207.518C310.811 205.59 309.116 204.027 307.025 204.027Z" fill="#BCBEC0"/>
<path d="M317.716 189.067H292.28C290.189 189.067 288.493 190.63 288.493 192.558V192.564C288.493 194.492 290.189 196.055 292.28 196.055H317.716C319.807 196.055 321.502 194.492 321.502 192.564V192.558C321.502 190.63 319.807 189.067 317.716 189.067Z" fill="#BCBEC0"/>
<path d="M266.697 171.167H253.35C251.259 171.167 249.563 172.73 249.563 174.658V174.664C249.563 176.592 251.259 178.155 253.35 178.155H266.697C268.788 178.155 270.483 176.592 270.483 174.664V174.658C270.483 172.73 268.788 171.167 266.697 171.167Z" fill="#BCBEC0"/>
<path opacity="0.2" d="M301.593 149.746V179.115L314.578 171.167L327.811 179.115V149.746H301.593Z" fill="black"/>
<path opacity="0.2" d="M106.092 212.661C106.092 212.661 116.358 214.383 121.122 210.101L121.027 208.391C121.027 208.391 113.702 209.984 108.512 208.391L106.092 212.661Z" fill="black"/>
<path d="M124.947 159.253C124.947 159.253 129.686 165.297 133.752 164.173C133.752 164.173 135.753 164.173 135.512 159.253C135.512 159.253 146.769 169.685 145.587 187.245L133.695 187.48C133.695 187.48 134.762 183.075 131.154 172.461C131.154 172.461 126.948 162.445 124.947 159.253Z" fill="#CCCCCC"/>
<path d="M134.216 215.859C134.216 215.859 140.257 216.656 143.548 211.935C144.672 210.226 145.144 208.22 144.888 206.235L144.66 204.027H143.186L141.242 210.699H137.259V213.006H133.866L134.216 215.859Z" fill="#CCCCCC"/>
<path d="M148.992 241.556C148.992 241.556 141.699 224.645 142.303 213.352C142.303 213.352 146.184 210.283 144.622 203.98C144.622 203.98 149.469 204.378 148.891 198.978C148.891 198.978 148.332 194.374 145.562 195.463L148.065 187.228H145.479C145.53 185.143 145.6 176.884 142.093 169.368C140.276 165.713 138.01 162.262 135.34 159.083C134.984 158.667 134.705 158.321 134.463 158.087C139.026 159.421 143.238 161.616 146.832 164.53C153.185 169.837 159.773 179.326 160.916 196.026H165.49V205.134C165.49 205.134 151.343 209.387 152.105 199.821C152.105 199.821 149.793 202.434 151.673 209.433C152.506 212.43 153.846 215.286 155.644 217.897C158.115 221.564 162.632 229.683 159.684 236.524C159.665 236.507 156.52 242.499 148.992 241.556Z" fill="#0C1C22"/>
<path d="M152.264 199.839H152.035C153.42 179.291 144.939 169.081 144.857 168.982L145.034 168.853C145.123 168.941 153.655 179.203 152.264 199.839Z" fill="white"/>
<path d="M113.08 244.215C113.08 244.215 112.445 250.236 117.298 256.814C117.298 256.814 121.885 264.792 120.862 278.756C120.862 278.756 118.619 291.157 123.689 300.552C125.675 304.092 127.295 307.797 128.53 311.617L133.441 327.707L140.695 326.296C138.917 319.061 138.188 311.642 138.529 304.231L136.877 258.314C136.877 258.314 136.985 223.509 142.315 213.329C142.315 213.329 139.704 215.965 134.216 215.836C134.216 215.836 137.71 235.511 123.549 242.745C123.549 242.768 117.05 245.592 113.08 244.215Z" fill="#BA3236"/>
<path d="M124.947 150.174C124.947 150.174 125.156 153.553 124.947 159.253C124.947 159.253 129.133 165.432 134.025 164.313C134.025 164.313 135.734 164.313 135.512 159.288C135.512 159.288 134.038 157.935 133.421 151.896L124.947 150.174Z" fill="#F9B499"/>
<path opacity="0.2" d="M158.534 223.169C158.534 223.169 154.849 228.898 149.939 225.869C149.034 225.29 148.281 224.531 147.734 223.649C147.652 223.526 147.569 223.392 147.487 223.251C145.375 219.561 144.884 215.264 146.114 211.249C146.623 209.457 147.093 206.411 146.032 203.845C145.802 203.899 145.569 203.937 145.333 203.957C145.105 203.971 144.875 203.971 144.647 203.957C144.939 205.076 145.052 206.228 144.984 207.377C144.895 209.299 144.297 211.642 142.271 213.334C142.271 213.334 141.197 223.386 148.948 241.538C148.948 241.538 156.609 242.756 159.824 235.938C159.811 235.956 162.454 231.897 158.534 223.169Z" fill="black"/>
<path d="M483.486 229.407C481.949 228.681 481.021 228.3 481.015 228.3L481.199 227.908C481.199 227.908 482.146 228.294 483.696 229.032L483.486 229.407Z" fill="#BA3236"/>
<path d="M462.363 318.775C460.502 318.734 458.596 318.646 456.69 318.505L456.728 318.083C458.634 318.218 460.54 318.312 462.369 318.347L462.363 318.775ZM468.036 318.734V318.312C469.942 318.242 471.848 318.119 473.671 317.937L473.722 318.359C471.854 318.54 469.948 318.646 468.036 318.734ZM451.049 317.955C449.219 317.732 447.332 317.463 445.446 317.152L445.528 316.736C447.434 317.047 449.283 317.322 451.112 317.533L451.049 317.955ZM479.331 317.621L479.249 317.205C481.117 316.894 482.972 316.519 484.763 316.086L484.877 316.496C483.073 316.935 481.205 317.31 479.325 317.621H479.331ZM490.309 314.961L490.157 314.563C491.935 313.977 493.701 313.333 495.391 312.618L495.582 313.005C493.873 313.72 492.101 314.382 490.303 314.961H490.309ZM500.639 310.615L500.41 310.246C501.998 309.409 503.548 308.489 505.022 307.546L505.168 307.446L505.435 307.792L505.283 307.891C503.777 308.858 502.233 309.772 500.632 310.615H500.639ZM509.844 304.477L509.526 304.166C510.902 302.986 512.19 301.722 513.382 300.382L513.738 300.652C512.531 302.005 511.228 303.283 509.838 304.477H509.844ZM517.048 296.387L516.66 296.159C517.649 294.687 518.532 293.157 519.303 291.578L519.722 291.748C518.945 293.348 518.051 294.898 517.048 296.387ZM521.686 286.828L521.241 286.705C521.768 285.042 522.167 283.347 522.435 281.632L522.893 281.697C522.623 283.433 522.22 285.15 521.686 286.834V286.828ZM523.305 276.46H522.835V276.337C522.835 274.648 522.71 272.961 522.461 271.288L522.918 271.23C523.167 272.923 523.292 274.629 523.293 276.337L523.305 276.46ZM521.317 266.21C520.797 264.543 520.16 262.91 519.411 261.319L519.837 261.155C520.586 262.761 521.223 264.411 521.743 266.093L521.317 266.21ZM516.87 256.68C515.928 255.179 514.902 253.724 513.795 252.322L514.17 252.076C515.285 253.489 516.317 254.955 517.264 256.469L516.87 256.68ZM510.282 248.257C509.082 246.986 507.773 245.709 506.407 244.473L506.725 244.168C508.11 245.416 509.418 246.699 510.632 247.976L510.282 248.257ZM502.233 240.958C500.823 239.851 499.336 238.756 497.786 237.702L498.066 237.362C499.597 238.422 501.09 239.523 502.513 240.636L502.233 240.958ZM493.193 234.691C491.637 233.736 490.017 232.799 488.403 231.92L488.638 231.551C490.265 232.442 491.885 233.379 493.454 234.339L493.193 234.691Z" fill="#BA3236"/>
<path d="M439.849 316.115C438.959 315.928 438.057 315.735 437.149 315.53L437.263 315.12L439.951 315.705L439.849 316.115Z" fill="#BA3236"/>
<path d="M483.613 201.649L473.182 192.558L430.917 221.131L483.613 201.649Z" fill="#CCCCCC"/>
<path d="M491.764 206.844L507.805 219.959L430.917 221.131L491.764 206.844Z" fill="#CCCCCC"/>
<path d="M430.917 221.131L485.138 220.305L482.241 228.593L430.917 221.131Z" fill="#BCBEC0"/>
<path d="M61.0568 224.464C61.0568 224.464 60.4215 223.743 59.3288 222.466L59.6973 222.209C60.7709 223.48 61.4062 224.188 61.4125 224.194L61.0568 224.464Z" fill="#BA3236"/>
<path d="M55.9745 218.384C54.8882 217.025 53.7955 215.625 52.7282 214.225L53.103 213.979C54.1703 215.379 55.263 216.779 56.3493 218.132L55.9745 218.384ZM49.5518 209.996C48.5227 208.567 47.4999 207.126 46.5152 205.696L46.9091 205.468C47.8874 206.891 48.9038 208.338 49.9394 209.756L49.5518 209.996ZM43.5993 201.333C42.6336 199.851 41.6934 198.357 40.804 196.898L41.2043 196.693C42.0936 198.146 43.0339 199.622 43.9931 201.116L43.5993 201.333ZM38.1803 192.394C37.31 190.848 36.4714 189.301 35.6964 187.802L36.1157 187.62C36.8843 189.114 37.7229 190.654 38.5933 192.195L38.1803 192.394ZM33.4094 183.128C32.6597 181.517 31.9673 179.912 31.3447 178.36L31.7767 178.213C32.412 179.76 33.0917 181.353 33.8287 182.964L33.4094 183.128ZM29.5659 173.498C29.0069 171.811 28.5241 170.142 28.1302 168.537L28.5749 168.443C28.9688 170.036 29.4516 171.7 30.0043 173.375L29.5659 173.498ZM27.1328 163.488C26.8783 161.788 26.7319 160.077 26.6945 158.362H27.1582C27.1946 160.059 27.3367 161.753 27.5838 163.435L27.1328 163.488ZM27.4441 153.278L26.9867 153.225C27.2227 151.518 27.6267 149.834 28.1937 148.194L28.6321 148.328C28.0714 149.941 27.6737 151.598 27.4441 153.278ZM42.5638 147.608C41.3786 147.587 40.2084 147.36 39.1142 146.94L39.2794 146.542C40.3205 146.945 41.4348 147.164 42.5638 147.186C43.2365 147.191 43.905 147.088 44.5395 146.882L44.6919 147.286C44.0076 147.504 43.2879 147.613 42.5638 147.608ZM34.3686 144.187C33.5497 143.49 32.8109 142.717 32.1642 141.879C31.4082 142.84 30.9699 143.531 30.9635 143.537L30.8492 143.719L30.449 143.502L30.5633 143.326C30.5633 143.326 31.0525 142.553 31.8847 141.505C31.5528 141.045 31.2474 140.57 30.9699 140.081L31.3765 139.882C31.6242 140.321 31.891 140.737 32.1769 141.141C32.6343 140.556 33.1743 139.97 33.7842 139.349L34.1272 139.636C33.492 140.286 32.9202 140.936 32.4501 141.516C33.0969 142.371 33.8447 143.157 34.6799 143.859L34.3686 144.187ZM48.5735 143.601L48.1352 143.467C48.3397 142.888 48.4427 142.283 48.4401 141.674C48.4357 140.628 48.1475 139.599 47.6015 138.681L48.0081 138.482C48.5907 139.46 48.8966 140.558 48.8975 141.674C48.9013 142.326 48.7941 142.974 48.5799 143.596L48.5735 143.601ZM38.3455 136.42L38.1231 136.045C39.2841 135.428 40.5949 135.089 41.9348 135.061C42.5038 135.061 43.0702 135.132 43.6183 135.272L43.4976 135.682C42.9873 135.548 42.4591 135.481 41.9285 135.483C40.668 135.515 39.4362 135.837 38.3455 136.42ZM29.261 135.143C28.9866 133.43 29.0188 131.687 29.3563 129.983L29.8137 130.059C29.4849 131.718 29.4527 133.416 29.7184 135.085L29.261 135.143ZM31.6052 125.291L31.1859 125.109C31.9546 123.569 32.7995 122.028 33.6952 120.529L34.1018 120.734C33.2124 122.228 32.3993 123.756 31.6052 125.291ZM36.9352 116.353L36.5476 116.118C37.5514 114.695 38.6187 113.272 39.724 111.907L40.0925 112.159C38.9935 113.523 37.9326 114.929 36.9352 116.353ZM43.5548 108.152L43.2054 107.877C44.4061 106.588 45.6703 105.317 46.9662 104.099L47.2966 104.397C46.007 105.628 44.7491 106.893 43.5548 108.176V108.152ZM51.3052 100.877L50.9939 100.561C52.3725 99.4304 53.8082 98.3233 55.263 97.269L55.5489 97.6029C54.1004 98.6748 52.6711 99.776 51.3052 100.901V100.877ZM60.0149 94.5863L59.7544 94.2348C61.2664 93.28 62.8355 92.3487 64.4301 91.4642L64.6715 91.8274C63.0833 92.7294 61.5142 93.6608 60.0149 94.6097V94.5863ZM69.4933 89.3145L69.2773 88.9397C70.8972 88.1548 72.5807 87.3992 74.2706 86.6845L74.4612 87.0711C72.7777 87.815 71.1069 88.5706 69.4933 89.3497V89.3145ZM79.5561 85.0737L79.3909 84.6813C81.0871 84.0604 82.8468 83.4688 84.6066 82.9241L84.759 83.3282C82.9993 83.9081 81.2523 84.4939 79.5561 85.1089V85.0737ZM90.0382 81.7994L89.9112 81.3894C91.6645 80.9267 93.4751 80.4874 95.2856 80.0832L95.3936 80.4932C93.5894 80.9325 91.7852 81.3718 90.0382 81.8346V81.7994Z" fill="#BA3236"/>
<path d="M100.813 79.433L100.724 79.0171C101.619 78.8531 102.528 78.695 103.443 78.5485L103.525 78.9644L100.813 79.433Z" fill="#BA3236"/>
<path d="M109.999 72.1112L100.26 80.5576L147.614 81.6178L109.999 72.1112Z" fill="#CCCCCC"/>
<path d="M120.309 63.4831L114.585 69.4694L147.614 81.6178L120.309 63.4831Z" fill="#CCCCCC"/>
<path d="M115.729 86.0168L114.585 80.8798L147.417 81.6178L115.729 86.0168Z" fill="#BCBEC0"/>
<path d="M165.694 317.351L165.51 188.247C165.51 188.247 166.081 194.052 172.574 198.984L261.735 256.727L285.876 254.799L370.908 200.46C370.908 200.46 378.798 196.002 377.528 188.259V317.357C377.528 317.881 377.416 318.401 377.198 318.885C376.98 319.369 376.661 319.809 376.258 320.18C375.856 320.55 375.378 320.844 374.853 321.044C374.327 321.244 373.764 321.347 373.195 321.346H170.026C169.457 321.346 168.894 321.243 168.368 321.042C167.843 320.841 167.365 320.547 166.963 320.176C166.56 319.805 166.241 319.365 166.024 318.88C165.806 318.395 165.694 317.876 165.694 317.351Z" fill="#BA3236"/>
<path d="M172.828 321.334L269.035 249.528C270.683 248.302 272.736 247.632 274.854 247.63C277.032 247.629 279.141 248.339 280.806 249.633L373.182 321.334H172.828Z" fill="#BA3236"/>
<path opacity="0.2" d="M172.828 321.334L269.035 249.528C270.683 248.302 272.736 247.632 274.854 247.63C277.032 247.629 279.141 248.339 280.806 249.633L373.182 321.334H172.828Z" fill="black"/>
<path d="M432.27 262.203H332.162C329.436 262.203 327.226 264.241 327.226 266.755V329.336C327.226 331.849 329.436 333.887 332.162 333.887H432.27C434.996 333.887 437.206 331.849 437.206 329.336V266.755C437.206 264.241 434.996 262.203 432.27 262.203Z" fill="#BA3236"/>
<path d="M331.21 333.881L376.804 299.58L392.216 299.82L431.705 333.881H331.21Z" fill="#BA3236"/>
<path opacity="0.39" d="M331.21 333.881L376.804 299.58L392.216 299.82L431.705 333.881H331.21Z" fill="white"/>
<path d="M329.596 176.063L316.922 167.851L303.626 176.063V143.906H329.596V176.063Z" fill="#D1D3D4"/>
<path d="M377.655 300.101L328.796 270.152C328.313 269.858 327.917 269.459 327.644 268.99C327.37 268.521 327.226 267.996 327.226 267.463V265.437C327.226 264.579 327.596 263.757 328.253 263.15C328.911 262.544 329.803 262.203 330.733 262.203H433.699C434.629 262.203 435.521 262.544 436.179 263.15C436.837 263.757 437.206 264.579 437.206 265.437V267.733C437.206 268.24 437.076 268.74 436.828 269.193C436.58 269.646 436.22 270.038 435.777 270.339L392.216 299.82C390.016 301.244 387.394 302.009 384.707 302.011C382.206 302.011 379.758 301.349 377.655 300.101Z" fill="#BA3236"/>
<path opacity="0.2" d="M377.655 300.101L328.796 270.152C328.313 269.858 327.917 269.459 327.644 268.99C327.37 268.521 327.226 267.996 327.226 267.463V265.437C327.226 264.579 327.596 263.757 328.253 263.15C328.911 262.544 329.803 262.203 330.733 262.203H433.699C434.629 262.203 435.521 262.544 436.179 263.15C436.837 263.757 437.206 264.579 437.206 265.437V267.733C437.206 268.24 437.076 268.74 436.828 269.193C436.58 269.646 436.22 270.038 435.777 270.339L392.216 299.82C390.016 301.244 387.394 302.009 384.707 302.011C382.206 302.011 379.758 301.349 377.655 300.101Z" fill="black"/>
<path d="M124.947 210.699L126.884 187.685L148.077 187.245L141.242 210.699H124.947Z" fill="white"/>
<path d="M121.116 213.006H137.259V210.699L138.777 187.439L123.34 187.661L121.116 213.006Z" fill="#CCCCCC"/>
<path opacity="0.5" d="M121.116 213.006H137.259V210.699L138.777 187.439L123.34 187.661L121.116 213.006Z" fill="white"/>
<path d="M102.591 201.497C102.591 201.497 101.391 211.718 121.014 208.403C121.014 208.403 136.744 207.547 141.235 204.039V198.995H120.271C120.271 198.995 128.53 174.98 123.562 167.658C123.562 167.658 119.223 160.887 115.024 163.095C115.024 163.095 111.733 163.628 108.989 172.221C108.499 173.756 107.953 175.273 107.305 176.761C105.456 180.949 101.797 190.906 102.591 201.497Z" fill="#0C1C22"/>
<path d="M141.242 198.984L143.046 193.876C143.093 193.74 143.187 193.621 143.312 193.536C143.438 193.452 143.589 193.407 143.745 193.407C143.854 193.406 143.962 193.428 144.061 193.47C144.16 193.512 144.248 193.575 144.318 193.652C144.388 193.729 144.438 193.82 144.466 193.917C144.493 194.015 144.496 194.117 144.475 194.216L144.069 196.196C144.069 196.196 147.055 194.198 148.077 196.196C148.077 196.196 151.648 203.646 144.66 204.027H141.242V198.984Z" fill="#F9B499"/>
<path d="M125.036 153.313L124.985 150.683H133.974L133.663 153.77C132.268 154.246 130.782 154.45 129.298 154.372C127.813 154.293 126.362 153.933 125.036 153.313Z" fill="#F4A68E"/>
<path d="M141.312 139.949C141.9 132.195 137.536 125.596 131.565 125.211C125.594 124.826 120.277 130.801 119.689 138.555C119.101 146.31 123.464 152.909 129.435 153.293C135.406 153.678 140.724 147.704 141.312 139.949Z" fill="#F9B499"/>
<path d="M133.974 125.736C133.974 125.736 131.115 135.694 119.655 139.279L116.097 136.479L118.963 125.186L124.14 122.257L133.974 125.736Z" fill="#BA3236"/>
<path d="M131.7 127.458C131.7 127.458 133.383 133.017 142.468 134.288L141.242 129.192L135.524 124.822L131.198 123.909L131.7 127.458Z" fill="#BA3236"/>
<path d="M132.284 125.35C132.601 127.018 132.577 128.727 132.214 130.387C131.816 132.056 130.991 133.612 129.807 134.927C129.212 135.578 128.524 136.152 127.761 136.631C127.004 137.124 126.168 137.503 125.284 137.756C124.848 137.867 124.423 138.01 124.013 138.183C123.612 138.375 123.244 138.619 122.92 138.91C122.279 139.509 121.8 140.239 121.523 141.042C121.765 140.219 122.218 139.462 122.844 138.833C123.164 138.526 123.535 138.267 123.943 138.066C124.352 137.879 124.777 137.722 125.214 137.598C125.647 137.463 126.072 137.305 126.484 137.123C126.885 136.93 127.271 136.713 127.64 136.473C128.385 135.999 129.055 135.431 129.629 134.786C130.8 133.503 131.627 131.984 132.043 130.352C132.261 129.539 132.378 128.706 132.392 127.868C132.423 127.027 132.387 126.186 132.284 125.35Z" fill="#BA3236"/>
</svg>
