<svg width="335" height="539" viewBox="0 0 335 539" fill="none" xmlns="http://www.w3.org/2000/svg">
<path d="M235.87 41.75V89.81C235.865 91.2246 235.3 92.5798 234.3 93.5801C233.3 94.5804 231.945 95.1447 230.53 95.15H148.36C146.942 95.15 145.582 94.588 144.577 93.5872C143.572 92.5863 143.005 91.2281 143 89.81V41.75C143 41.0634 143.136 40.3836 143.4 39.75C143.8 38.7526 144.49 37.8987 145.382 37.2994C146.274 36.7001 147.326 36.3832 148.4 36.39H230.57C231.642 36.3843 232.69 36.6993 233.581 37.2946C234.472 37.8898 235.165 38.738 235.57 39.73C235.804 40.3764 235.906 41.0634 235.87 41.75V41.75Z" fill="#D1D3D4"/>
<path opacity="0.3" d="M235.48 39.75L191.62 76.16C191.005 76.6681 190.233 76.946 189.435 76.946C188.637 76.946 187.865 76.6681 187.25 76.16L143.4 39.77C143.8 38.7726 144.49 37.9187 145.382 37.3194C146.274 36.7201 147.326 36.4032 148.4 36.41H230.57C231.626 36.4221 232.655 36.7455 233.529 37.3396C234.402 37.9337 235.081 38.7721 235.48 39.75V39.75Z" fill="black"/>
<path d="M203.67 10.76H160.12V53.58L187.33 76.16C187.941 76.6773 188.715 76.9612 189.515 76.9612C190.315 76.9612 191.089 76.6773 191.7 76.16L218.93 53.58V20.31L203.67 10.76Z" fill="white"/>
<path d="M189.44 77.71C188.46 77.7016 187.514 77.3474 186.77 76.71L159.55 54.16C159.467 54.0879 159.399 53.9989 159.353 53.899C159.306 53.799 159.281 53.6903 159.28 53.58V10.76C159.28 10.5584 159.36 10.3651 159.503 10.2226C159.645 10.0801 159.838 10 160.04 10H203.67C203.816 10.0066 203.957 10.0514 204.08 10.13L219.26 19.67C219.365 19.7413 219.451 19.8365 219.512 19.9478C219.573 20.0591 219.607 20.1832 219.61 20.31V53.58C219.609 53.6903 219.584 53.799 219.537 53.899C219.491 53.9989 219.423 54.0879 219.34 54.16L192.12 76.74C191.369 77.3688 190.42 77.7123 189.44 77.71V77.71ZM160.79 53.21L187.73 75.58C188.209 75.9776 188.812 76.1953 189.435 76.1953C190.058 76.1953 190.661 75.9776 191.14 75.58L218.08 53.21V20.73L203.45 11.54H160.79V53.21Z" fill="#D1D3D4"/>
<path d="M218.85 20.31L203.67 10.76L208.58 23.41L218.85 20.31Z" fill="#EBEBEB"/>
<path d="M208.58 24.18C208.425 24.1815 208.274 24.1339 208.149 24.0441C208.023 23.9542 207.929 23.8267 207.88 23.68L203.02 11.06C202.98 10.9645 202.961 10.8619 202.963 10.7586C202.965 10.6552 202.988 10.5534 203.032 10.4595C203.075 10.3656 203.137 10.2816 203.214 10.2129C203.291 10.1442 203.382 10.0921 203.48 10.06C203.588 10.0202 203.703 10.005 203.817 10.0154C203.931 10.0257 204.041 10.0615 204.14 10.12L219.32 19.66C219.444 19.7403 219.541 19.8551 219.599 19.9903C219.658 20.1255 219.676 20.2749 219.65 20.42C219.634 20.5635 219.575 20.6988 219.48 20.8078C219.386 20.9168 219.26 20.9943 219.12 21.03L208.86 24.14L208.58 24.18ZM205.2 12.63L209.04 22.49L217.11 20.07L205.2 12.63Z" fill="#D1D3D4"/>
<path d="M201.35 51.29H204.8C203.54 53.4951 201.668 55.2875 199.41 56.45C196.455 57.9488 193.172 58.6845 189.86 58.59C186.733 58.6885 183.624 58.0729 180.77 56.79C178.39 55.7159 176.476 53.8202 175.38 51.45C174.291 49.045 173.84 46.4 174.07 43.77C174.301 40.7487 175.269 37.8302 176.89 35.27C178.417 32.7451 180.62 30.6979 183.25 29.36C185.961 28.0116 188.953 27.3261 191.98 27.36C194.455 27.3087 196.906 27.8613 199.12 28.97C201.077 29.947 202.663 31.5333 203.64 33.49C204.621 35.4899 205.029 37.7223 204.82 39.94C204.608 42.7081 203.511 45.3345 201.69 47.43C200.69 48.7413 199.401 49.8043 197.923 50.5362C196.446 51.2682 194.819 51.6493 193.17 51.65C192.469 51.7037 191.77 51.5358 191.17 51.17C190.952 51.0074 190.77 50.802 190.634 50.5664C190.498 50.3309 190.412 50.0701 190.38 49.8C189.145 50.9717 187.512 51.6326 185.81 51.65C184.996 51.6796 184.186 51.527 183.439 51.2035C182.691 50.88 182.025 50.3937 181.49 49.78C180.931 49.0985 180.518 48.309 180.277 47.4608C180.036 46.6126 179.972 45.7239 180.09 44.85C180.285 42.3044 181.22 39.8714 182.78 37.85C183.545 36.705 184.576 35.7623 185.784 35.1023C186.993 34.4423 188.343 34.0847 189.72 34.06C190.544 33.9944 191.369 34.1681 192.096 34.5602C192.823 34.9522 193.422 35.5459 193.82 36.27L194.36 34.47H198.66L195.3 45.98C195.153 46.4445 195.039 46.9191 194.96 47.4C194.928 47.6183 194.981 47.8407 195.11 48.02C195.162 48.0826 195.228 48.1324 195.303 48.1653C195.377 48.1983 195.459 48.2136 195.54 48.21C196.311 48.1094 197.035 47.7822 197.62 47.27C198.831 46.3752 199.839 45.2347 200.578 43.9232C201.317 42.6118 201.771 41.1591 201.91 39.66C202.029 38.456 201.879 37.2405 201.469 36.1021C201.059 34.9638 200.4 33.9313 199.54 33.08C198.475 32.1284 197.229 31.4008 195.877 30.9403C194.525 30.4799 193.094 30.2962 191.67 30.4C189.031 30.3315 186.419 30.9482 184.09 32.19C181.971 33.3555 180.234 35.1094 179.09 37.24C177.898 39.3297 177.191 41.6604 177.02 44.06C176.82 46.2098 177.251 48.3714 178.26 50.28C179.251 52.1366 180.861 53.5873 182.81 54.38C185.049 55.2812 187.447 55.72 189.86 55.67C192.154 55.723 194.438 55.357 196.6 54.59C198.441 53.9174 200.077 52.7807 201.35 51.29V51.29ZM184.35 44.62C184.17 45.6536 184.365 46.7176 184.9 47.62C185.132 47.9311 185.434 48.1835 185.781 48.3572C186.129 48.5308 186.512 48.6208 186.9 48.62C187.522 48.618 188.135 48.4599 188.68 48.16C189.163 47.902 189.6 47.5638 189.97 47.16C190.711 46.3086 191.29 45.3292 191.68 44.27C192.154 43.1376 192.457 41.9413 192.58 40.72C192.718 39.7366 192.491 38.7365 191.94 37.91C191.701 37.5893 191.388 37.3309 191.027 37.1568C190.667 36.9828 190.27 36.8981 189.87 36.91C188.875 36.9338 187.923 37.3175 187.19 37.99C186.26 38.8634 185.571 39.9622 185.19 41.18C184.742 42.2815 184.446 43.4387 184.31 44.62H184.35Z" fill="#D1D3D4"/>
<path d="M147.87 206.75V254.81C147.865 256.225 147.3 257.58 146.3 258.58C145.3 259.58 143.945 260.145 142.53 260.15H60.36C58.9419 260.15 57.5816 259.588 56.577 258.587C55.5723 257.586 55.0053 256.228 55 254.81V206.75C54.9997 206.063 55.1357 205.384 55.4 204.75C55.7996 203.753 56.4903 202.899 57.3822 202.299C58.274 201.7 59.3256 201.383 60.4 201.39H142.57C143.642 201.384 144.69 201.699 145.581 202.295C146.472 202.89 147.165 203.738 147.57 204.73C147.804 205.376 147.906 206.063 147.87 206.75V206.75Z" fill="#D1D3D4"/>
<path opacity="0.3" d="M147.48 204.75L103.62 241.16C103.005 241.668 102.233 241.946 101.435 241.946C100.637 241.946 99.8648 241.668 99.25 241.16L55.4 204.77C55.7997 203.773 56.4904 202.919 57.3822 202.319C58.274 201.72 59.3256 201.403 60.4 201.41H142.57C143.626 201.422 144.655 201.745 145.529 202.34C146.402 202.934 147.081 203.772 147.48 204.75V204.75Z" fill="black"/>
<path d="M115.67 175.76H72.12V218.58L99.33 241.16C99.9405 241.677 100.715 241.961 101.515 241.961C102.315 241.961 103.089 241.677 103.7 241.16L130.93 218.58V185.31L115.67 175.76Z" fill="white"/>
<path d="M101.44 242.71C100.46 242.702 99.5145 242.347 98.77 241.71L71.55 219.16C71.4666 219.088 71.3994 218.999 71.3528 218.899C71.3063 218.799 71.2815 218.69 71.28 218.58V175.76C71.28 175.558 71.3601 175.365 71.5026 175.223C71.6452 175.08 71.8385 175 72.04 175H115.67C115.816 175.007 115.957 175.051 116.08 175.13L131.26 184.67C131.365 184.741 131.451 184.837 131.512 184.948C131.573 185.059 131.607 185.183 131.61 185.31V218.58C131.609 218.69 131.584 218.799 131.537 218.899C131.491 218.999 131.423 219.088 131.34 219.16L104.12 241.74C103.369 242.369 102.42 242.712 101.44 242.71V242.71ZM72.79 218.21L99.73 240.58C100.209 240.978 100.812 241.195 101.435 241.195C102.058 241.195 102.661 240.978 103.14 240.58L130.08 218.21V185.73L115.45 176.54H72.79V218.21Z" fill="#D1D3D4"/>
<path d="M130.85 185.31L115.67 175.76L120.58 188.41L130.85 185.31Z" fill="#EBEBEB"/>
<path d="M120.58 189.18C120.425 189.182 120.274 189.134 120.149 189.044C120.023 188.954 119.929 188.827 119.88 188.68L115.02 176.06C114.98 175.965 114.961 175.862 114.963 175.759C114.965 175.655 114.988 175.553 115.032 175.46C115.075 175.366 115.137 175.282 115.214 175.213C115.291 175.144 115.382 175.092 115.48 175.06C115.588 175.02 115.703 175.005 115.817 175.015C115.931 175.026 116.041 175.061 116.14 175.12L131.32 184.66C131.444 184.74 131.541 184.855 131.599 184.99C131.658 185.125 131.676 185.275 131.65 185.42C131.634 185.564 131.575 185.699 131.48 185.808C131.386 185.917 131.26 185.994 131.12 186.03L120.86 189.14L120.58 189.18ZM117.2 177.63L121.04 187.49L129.11 185.07L117.2 177.63Z" fill="#D1D3D4"/>
<path d="M113.35 216.29H116.8C115.54 218.495 113.668 220.287 111.41 221.45C108.455 222.949 105.172 223.684 101.86 223.59C98.7326 223.688 95.6239 223.073 92.77 221.79C90.3897 220.716 88.4762 218.82 87.38 216.45C86.291 214.045 85.8398 211.4 86.07 208.77C86.3009 205.749 87.2692 202.83 88.89 200.27C90.4169 197.745 92.62 195.698 95.25 194.36C97.9606 193.012 100.953 192.326 103.98 192.36C106.455 192.309 108.906 192.861 111.12 193.97C113.077 194.947 114.663 196.533 115.64 198.49C116.621 200.49 117.029 202.722 116.82 204.94C116.608 207.708 115.511 210.334 113.69 212.43C112.69 213.741 111.401 214.804 109.923 215.536C108.446 216.268 106.819 216.649 105.17 216.65C104.469 216.704 103.77 216.536 103.17 216.17C102.952 216.007 102.77 215.802 102.634 215.566C102.498 215.331 102.412 215.07 102.38 214.8C101.145 215.972 99.5123 216.633 97.81 216.65C96.9961 216.68 96.1859 216.527 95.4385 216.203C94.6912 215.88 94.0255 215.394 93.49 214.78C92.9306 214.098 92.5176 213.309 92.2767 212.461C92.0359 211.613 91.9723 210.724 92.09 209.85C92.2854 207.304 93.2204 204.871 94.78 202.85C95.545 201.705 96.5758 200.762 97.7843 200.102C98.9928 199.442 100.343 199.085 101.72 199.06C102.544 198.994 103.369 199.168 104.096 199.56C104.823 199.952 105.422 200.546 105.82 201.27L106.36 199.47H110.66L107.3 210.98C107.153 211.445 107.039 211.919 106.96 212.4C106.928 212.618 106.981 212.841 107.11 213.02C107.162 213.083 107.228 213.132 107.303 213.165C107.377 213.198 107.459 213.214 107.54 213.21C108.311 213.109 109.035 212.782 109.62 212.27C110.831 211.375 111.839 210.235 112.578 208.923C113.317 207.612 113.771 206.159 113.91 204.66C114.029 203.456 113.879 202.24 113.469 201.102C113.059 199.964 112.4 198.931 111.54 198.08C110.475 197.128 109.229 196.401 107.877 195.94C106.525 195.48 105.094 195.296 103.67 195.4C101.031 195.331 98.4195 195.948 96.09 197.19C93.9709 198.356 92.2344 200.109 91.09 202.24C89.8982 204.33 89.1908 206.66 89.02 209.06C88.8196 211.21 89.2505 213.371 90.26 215.28C91.2507 217.137 92.8606 218.587 94.81 219.38C97.0489 220.281 99.447 220.72 101.86 220.67C104.154 220.723 106.438 220.357 108.6 219.59C110.441 218.917 112.077 217.781 113.35 216.29V216.29ZM96.35 209.62C96.1698 210.654 96.3649 211.718 96.9 212.62C97.1323 212.931 97.4342 213.184 97.7814 213.357C98.1287 213.531 98.5118 213.621 98.9 213.62C99.5225 213.618 100.135 213.46 100.68 213.16C101.163 212.902 101.6 212.564 101.97 212.16C102.711 211.309 103.29 210.329 103.68 209.27C104.154 208.138 104.457 206.941 104.58 205.72C104.718 204.737 104.491 203.737 103.94 202.91C103.701 202.589 103.388 202.331 103.027 202.157C102.667 201.983 102.27 201.898 101.87 201.91C100.875 201.934 99.9232 202.318 99.19 202.99C98.2598 203.863 97.5709 204.962 97.19 206.18C96.742 207.281 96.446 208.439 96.31 209.62H96.35Z" fill="#D1D3D4"/>
<path d="M92.87 31.75V79.81C92.8647 81.2246 92.3004 82.5798 91.3001 83.5801C90.2998 84.5804 88.9446 85.1447 87.53 85.15H5.36C3.9419 85.15 2.58159 84.588 1.57697 83.5872C0.572344 82.5863 0.00529181 81.2281 3.85397e-07 79.81V31.75C-0.000264196 31.0634 0.135703 30.3836 0.40001 29.75C0.79965 28.7526 1.49035 27.8987 2.38216 27.2994C3.27397 26.7001 4.32556 26.3832 5.40001 26.39H87.57C88.6415 26.3843 89.6903 26.6993 90.5813 27.2946C91.4724 27.8898 92.1649 28.738 92.57 29.73C92.8044 30.3764 92.9064 31.0634 92.87 31.75V31.75Z" fill="#D1D3D4"/>
<path opacity="0.3" d="M92.48 29.75L48.62 66.16C48.0052 66.6681 47.2326 66.946 46.435 66.946C45.6374 66.946 44.8648 66.6681 44.25 66.16L0.400024 29.77C0.799665 28.7726 1.49036 27.9187 2.38217 27.3194C3.27398 26.7201 4.32558 26.4032 5.40002 26.41H87.57C88.6262 26.4221 89.6554 26.7455 90.5287 27.3396C91.402 27.9337 92.0808 28.7721 92.48 29.75V29.75Z" fill="black"/>
<path d="M60.67 0.76001H17.12V43.58L44.33 66.16C44.9405 66.6773 45.7148 66.9612 46.515 66.9612C47.3152 66.9612 48.0895 66.6773 48.7 66.16L75.93 43.58V10.31L60.67 0.76001Z" fill="white"/>
<path d="M46.44 67.71C45.46 67.7016 44.5145 67.3474 43.77 66.71L16.55 44.16C16.4666 44.0879 16.3994 43.9989 16.3528 43.899C16.3063 43.799 16.2815 43.6903 16.28 43.58V0.759995C16.28 0.55843 16.3601 0.365123 16.5026 0.222595C16.6452 0.0800676 16.8385 0 17.04 0H60.67C60.8157 0.00655419 60.9572 0.0513904 61.08 0.129997L76.26 9.67C76.3649 9.74129 76.4514 9.83651 76.5122 9.94778C76.5731 10.0591 76.6066 10.1832 76.61 10.31V43.58C76.6086 43.6903 76.5838 43.799 76.5372 43.899C76.4907 43.9989 76.4235 44.0879 76.34 44.16L49.12 66.74C48.3688 67.3688 47.4197 67.7123 46.44 67.71V67.71ZM17.79 43.21L44.73 65.58C45.2092 65.9776 45.8123 66.1953 46.435 66.1953C47.0577 66.1953 47.6608 65.9776 48.14 65.58L75.08 43.21V10.73L60.45 1.54H17.79V43.21Z" fill="#D1D3D4"/>
<path d="M75.8501 10.31L60.67 0.76001L65.58 13.41L75.8501 10.31Z" fill="#EBEBEB"/>
<path d="M65.58 14.18C65.4254 14.1815 65.2743 14.1339 65.1485 14.0441C65.0227 13.9542 64.9287 13.8267 64.88 13.68L60.02 1.06001C59.9804 0.964523 59.961 0.861894 59.963 0.758556C59.965 0.655219 59.9883 0.553405 60.0315 0.459507C60.0747 0.365609 60.1368 0.281649 60.214 0.212902C60.2912 0.144154 60.3818 0.0921023 60.48 0.0600088C60.5875 0.0202407 60.7026 0.00498877 60.8168 0.0153692C60.931 0.0257497 61.0414 0.061498 61.14 0.120006L76.32 9.66002C76.4436 9.74027 76.5408 9.85515 76.5995 9.99031C76.6582 10.1255 76.6757 10.2749 76.65 10.42C76.6342 10.5635 76.5749 10.6988 76.4803 10.8078C76.3856 10.9168 76.2599 10.9943 76.12 11.03L65.86 14.14L65.58 14.18ZM62.2 2.63002L66.04 12.49L74.11 10.07L62.2 2.63002Z" fill="#D1D3D4"/>
<path d="M58.35 41.29H61.8C60.5402 43.4951 58.6679 45.2875 56.41 46.45C53.455 47.9488 50.172 48.6845 46.86 48.59C43.7326 48.6885 40.6239 48.0729 37.77 46.79C35.3897 45.7159 33.4762 43.8202 32.38 41.45C31.291 39.045 30.8398 36.4 31.07 33.77C31.3009 30.7487 32.2692 27.8302 33.89 25.27C35.4169 22.7451 37.62 20.6979 40.25 19.36C42.9606 18.0116 45.9527 17.3261 48.98 17.36C51.4555 17.3087 53.9061 17.8613 56.12 18.97C58.0767 19.947 59.663 21.5333 60.64 23.49C61.621 25.4899 62.0294 27.7223 61.82 29.94C61.6085 32.7081 60.5109 35.3345 58.69 37.43C57.6901 38.7413 56.4012 39.8043 54.9234 40.5362C53.4457 41.2682 51.819 41.6493 50.17 41.65C49.4695 41.7037 48.7698 41.5358 48.17 41.17C47.9521 41.0074 47.7697 40.802 47.6338 40.5664C47.498 40.3309 47.4116 40.0701 47.38 39.8C46.145 40.9717 44.5123 41.6326 42.81 41.65C41.9961 41.6796 41.1859 41.527 40.4385 41.2035C39.6912 40.88 39.0255 40.3937 38.49 39.78C37.9306 39.0985 37.5176 38.309 37.2767 37.4608C37.0359 36.6126 36.9723 35.7239 37.09 34.85C37.2854 32.3044 38.2204 29.8714 39.78 27.85C40.545 26.705 41.5758 25.7623 42.7843 25.1023C43.9928 24.4423 45.3432 24.0847 46.72 24.06C47.5436 23.9944 48.3687 24.1681 49.096 24.5602C49.8234 24.9522 50.422 25.5459 50.82 26.27L51.36 24.47H55.66L52.3 35.98C52.1526 36.4445 52.039 36.9191 51.96 37.4C51.9276 37.6183 51.9814 37.8407 52.11 38.02C52.1622 38.0826 52.2282 38.1324 52.3028 38.1653C52.3774 38.1983 52.4585 38.2136 52.54 38.21C53.3111 38.1094 54.0349 37.7822 54.62 37.27C55.8306 36.3752 56.8386 35.2347 57.5778 33.9232C58.3171 32.6118 58.7711 31.1591 58.91 29.66C59.0295 28.456 58.8787 27.2405 58.4687 26.1021C58.0587 24.9638 57.3998 23.9313 56.54 23.08C55.4749 22.1284 54.2293 21.4008 52.8773 20.9403C51.5253 20.4799 50.0945 20.2962 48.67 20.4C46.0311 20.3315 43.4195 20.9482 41.09 22.19C38.9709 23.3555 37.2344 25.1094 36.09 27.24C34.8982 29.3297 34.1908 31.6604 34.02 34.06C33.8196 36.2098 34.2505 38.3714 35.26 40.28C36.2507 42.1366 37.8606 43.5873 39.81 44.38C42.0489 45.2812 44.447 45.72 46.86 45.67C49.1537 45.723 51.4377 45.357 53.6 44.59C55.4411 43.9174 57.0773 42.7807 58.35 41.29V41.29ZM41.35 34.62C41.1698 35.6536 41.3649 36.7176 41.9 37.62C42.1323 37.9311 42.4342 38.1835 42.7814 38.3572C43.1287 38.5308 43.5118 38.6208 43.9 38.62C44.5225 38.618 45.1345 38.4599 45.68 38.16C46.1634 37.902 46.5996 37.5638 46.97 37.16C47.7108 36.3086 48.2903 35.3292 48.68 34.27C49.1535 33.1376 49.4568 31.9413 49.58 30.72C49.7184 29.7366 49.4907 28.7365 48.94 27.91C48.7007 27.5893 48.3876 27.3309 48.0273 27.1568C47.667 26.9828 47.27 26.8981 46.87 26.91C45.8754 26.9338 44.9232 27.3175 44.19 27.99C43.2598 28.8634 42.5709 29.9622 42.19 31.18C41.742 32.2815 41.446 33.4387 41.31 34.62H41.35Z" fill="#D1D3D4"/>
<path d="M179.645 508.093L167.145 503.552L174.035 473.432L186.535 477.963L179.645 508.093Z" fill="#F9B499"/>
<path d="M278.245 524.693H264.985L261.205 493.963H274.485L278.245 524.693Z" fill="#F9B499"/>
<path d="M263.235 523.162H279.375C279.636 523.163 279.889 523.252 280.093 523.416C280.296 523.58 280.438 523.808 280.495 524.062L283.245 535.862C283.303 536.108 283.311 536.363 283.27 536.612C283.229 536.861 283.138 537.099 283.004 537.313C282.871 537.527 282.696 537.712 282.49 537.858C282.284 538.003 282.051 538.107 281.805 538.162C281.646 538.187 281.484 538.187 281.325 538.162C276.115 538.082 272.325 537.773 265.755 537.773C261.755 537.773 249.625 538.192 243.995 538.192C238.365 538.192 237.635 532.682 239.915 532.192C250.125 529.962 257.805 526.882 261.045 523.932C261.654 523.412 262.435 523.138 263.235 523.162V523.162Z" fill="#F6E9D1"/>
<path d="M166.655 501.013L180.845 504.013C181.104 504.067 181.337 504.209 181.505 504.415C181.672 504.621 181.764 504.877 181.765 505.143L181.975 517.232C181.982 517.482 181.939 517.73 181.85 517.963C181.76 518.197 181.626 518.41 181.454 518.591C181.282 518.772 181.076 518.917 180.848 519.019C180.62 519.12 180.375 519.176 180.125 519.182C179.962 519.203 179.798 519.203 179.635 519.182C174.525 518.002 167.185 516.122 160.745 514.732C153.215 513.112 148.555 511.602 139.745 509.732C134.405 508.592 134.035 502.902 136.355 502.882C146.985 502.882 153.425 504.882 163.355 501.412C164.396 500.974 165.539 500.835 166.655 501.013V501.013Z" fill="#F6E9D1"/>
<path d="M250.995 129.732C246.922 135.926 242.775 142.089 238.555 148.223L225.875 166.492C223.815 169.492 221.655 172.542 219.685 175.492C218.185 177.764 216.362 179.805 214.275 181.552C211.729 183.71 208.659 185.158 205.375 185.753C203.705 186.019 202.005 186.056 200.325 185.862C198.819 185.67 197.342 185.298 195.925 184.753C193.511 183.805 191.266 182.474 189.275 180.812C187.538 179.364 185.953 177.742 184.545 175.973C183.855 175.133 183.245 174.262 182.645 173.372C182.045 172.482 181.545 171.633 180.905 170.523L188.805 164.452L190.745 165.842L192.745 167.193C194.014 168.018 195.352 168.731 196.745 169.322C197.817 169.827 198.973 170.128 200.155 170.212C201.075 170.212 201.555 170.033 201.765 169.783C202.061 169.444 202.335 169.086 202.585 168.712C203.005 168.082 203.475 167.263 204.125 166.053C206.025 162.653 207.895 159.393 209.865 156.143C213.758 149.689 217.732 143.312 221.785 137.012C223.785 133.872 225.865 130.743 227.975 127.643C230.085 124.543 232.145 121.433 234.335 118.383L250.995 129.732Z" fill="#F9B499"/>
<path d="M257.725 121.662C259.865 134.202 231.035 164.012 231.035 164.012L207.725 144.652C213.71 134.778 220.751 125.584 228.725 117.232C240.495 105.352 255.335 107.972 257.725 121.662Z" fill="#F6E9D1"/>
<path opacity="0.1" d="M257.725 121.662C259.865 134.202 231.035 164.012 231.035 164.012L207.725 144.652C213.71 134.778 220.751 125.584 228.725 117.232C240.495 105.352 255.335 107.972 257.725 121.662Z" fill="black"/>
<path opacity="0.2" d="M239.445 136.262C232.665 138.392 224.495 148.412 222.445 156.882L231.095 164.072C237.986 156.884 244.336 149.196 250.095 141.072C248.465 137.622 247.265 133.812 239.445 136.262Z" fill="black"/>
<path d="M317.035 123.792C311.45 137.508 306.904 151.625 303.435 166.022C300.955 176.022 299.035 185.722 297.505 194.502C293.905 215.062 292.455 230.912 291.195 236.182L221.575 222.082C221.075 145.862 244.045 109.682 244.045 109.682C249.725 109.369 255.419 109.406 261.095 109.792C262.285 109.872 263.515 109.982 264.735 110.132C274.712 111.561 284.599 113.564 294.345 116.132C296.195 116.602 298.055 117.132 299.875 117.672C309.035 120.422 317.035 123.792 317.035 123.792Z" fill="#407BFF"/>
<path d="M317.035 123.792C311.45 137.508 306.904 151.625 303.435 166.022C300.955 176.022 299.035 185.722 297.505 194.502C293.905 215.062 292.455 230.912 291.195 236.182L221.575 222.082C221.075 145.862 244.045 109.682 244.045 109.682C249.725 109.369 255.419 109.406 261.095 109.792C262.285 109.872 263.515 109.982 264.735 110.132C274.712 111.561 284.599 113.564 294.345 116.132C296.195 116.602 298.055 117.132 299.875 117.672C309.035 120.422 317.035 123.792 317.035 123.792Z" fill="#E7E7E7"/>
<path d="M266.195 124.422C263.465 129.262 259.735 133.042 255.015 146.202C255.305 149.202 255.755 152.202 256.315 155.282C258.468 152.822 260.728 150.382 263.095 147.962C266.495 135.052 265.865 131.372 268.945 125.082L266.195 124.422Z" fill="#F6E9D1"/>
<path d="M265.525 128.663L264.405 121.633L269.515 120.523L272.615 123.393L265.525 128.663Z" fill="#F6E9D1"/>
<path d="M299.825 117.652C282.545 129.532 267.825 142.042 256.265 155.282C253.265 139.052 253.965 123.782 259.365 109.692C254.229 109.402 249.081 109.402 243.945 109.692C243.945 109.692 221.025 145.912 221.525 222.102L291.195 236.202C292.455 230.922 293.905 215.082 297.505 194.512C299.035 185.742 300.955 176.092 303.435 166.042C306.901 151.644 311.447 137.527 317.035 123.812C317.035 123.812 309.035 120.422 299.825 117.652Z" fill="#F6E9D1"/>
<path d="M297.755 82.1925C294.065 91.3425 288.835 108.402 294.295 116.072C290.762 118.542 286.739 120.221 282.499 120.996C278.26 121.771 273.903 121.623 269.725 120.562C261.565 118.722 262.255 112.903 264.725 110.113C275.835 109.723 277.075 101.792 276.645 93.9825L297.755 82.1925Z" fill="#F9B499"/>
<path d="M269.515 120.562C269.515 120.562 271.805 125.142 274.645 129.812C280.645 128.082 294.805 123.102 295.805 115.922C295.383 114.317 294.423 112.905 293.085 111.922C285.742 116.048 277.784 118.965 269.515 120.562Z" fill="white"/>
<path d="M269.515 120.563C266.357 122.251 263.452 124.375 260.885 126.872C257.575 123.352 262.495 110.662 264.315 109.512C266.079 108.715 268.048 108.492 269.945 108.872C269.945 108.872 263.655 117.693 269.515 120.563Z" fill="white"/>
<path opacity="0.2" d="M289.215 87.0125L276.695 94.0125C276.817 95.8254 276.783 97.6453 276.595 99.4525C280.755 99.6925 287.195 96.3725 288.435 92.2125C289.004 90.5397 289.268 88.7785 289.215 87.0125V87.0125Z" fill="black"/>
<path d="M273.655 49.0725C270.035 53.0725 266.405 62.9125 274.315 62.8325C282.225 62.7525 279.825 42.2625 273.655 49.0725Z" fill="#BA3236"/>
<path d="M304.055 70.8625C299.215 83.1125 297.055 90.5125 288.615 94.8025C275.995 101.262 262.485 90.3525 263.615 76.8825C264.615 64.7525 272.345 46.7825 286.205 45.9325C289.26 45.7569 292.31 46.357 295.071 47.6771C297.831 48.9971 300.213 50.9941 301.995 53.4822C303.776 55.9703 304.899 58.8686 305.26 61.9074C305.62 64.9463 305.205 68.0269 304.055 70.8625Z" fill="#F9B499"/>
<path d="M276.955 53.9125C268.735 49.8125 266.175 38.3625 279.775 35.4125C282.928 34.8625 286.152 34.8625 289.305 35.4125C289.305 35.4125 285.755 37.6025 286.985 40.8925C289.041 38.9185 291.677 37.6583 294.505 37.2981C297.332 36.938 300.2 37.497 302.685 38.8925C300.135 40.8925 299.565 47.1425 304.295 47.2725C311.425 47.4625 319.715 52.6425 315.585 59.8225C321.585 67.3525 312.215 77.8225 298.905 78.8825C295.275 71.5825 301.135 60.7725 301.135 60.7725C294.425 60.5625 284.375 57.5625 276.955 53.9125Z" fill="#BA3236"/>
<path d="M313.565 59.9825C313.565 59.9825 319.655 59.1425 317.565 53.4125C322.115 57.2225 318.795 60.7325 313.565 59.9825Z" fill="#BA3236"/>
<path d="M312.315 60.9325C312.315 60.9325 318.215 59.2025 318.665 65.2725C321.245 59.9325 316.795 58.0925 312.315 60.9325Z" fill="#BA3236"/>
<path d="M305.475 82.8525C304.528 84.179 303.327 85.3041 301.942 86.1625C300.556 87.0208 299.014 87.5953 297.405 87.8525C293.065 88.4825 291.405 84.4425 293.065 80.6425C294.535 77.2025 298.555 72.7325 302.745 73.8525C306.935 74.9725 307.805 79.5625 305.475 82.8525Z" fill="#F9B499"/>
<path d="M166.805 484.383L187.985 492.062C187.985 492.062 204.515 419.243 213.315 378.883C215.985 366.593 221.375 349.712 227.735 331.712C235.795 309.132 245.345 284.713 253.095 265.573C261.255 245.493 267.335 231.312 267.335 231.312L221.575 222.052C221.575 222.052 186.655 322.563 178.785 362.263C170.655 403.563 166.805 484.383 166.805 484.383Z" fill="#BA3236"/>
<path opacity="0.2" d="M227.735 331.712C235.795 309.132 245.345 284.713 253.095 265.573L249.545 254.622C236.465 266.852 228.285 308.562 227.735 331.712Z" fill="black"/>
<path d="M246.255 227.083C246.255 227.083 238.085 341.623 237.585 380.613C237.055 423.243 256.945 506.743 256.945 506.743H281.245C281.245 506.743 271.565 431.393 274.785 389.163C278.405 341.923 291.145 236.163 291.145 236.163L246.255 227.083Z" fill="#BA3236"/>
<path d="M189.335 164.482L179.515 155.152L174.885 169.432C174.885 169.432 184.145 177.202 187.955 172.282L189.335 164.482Z" fill="#F9B499"/>
<path d="M166.435 152.333L166.625 165.963L174.905 169.433L179.535 155.153L166.435 152.333Z" fill="#7F3E3B"/>
<path d="M323.285 135.463C324.635 140.293 325.665 144.783 326.715 149.463C327.765 154.143 328.575 158.873 329.325 163.643C330.075 168.413 330.635 173.323 330.945 178.273C331.345 183.577 331.195 188.909 330.495 194.183C330.261 195.746 329.927 197.292 329.495 198.813C329.235 199.682 328.928 200.536 328.575 201.373C328.396 201.849 328.185 202.314 327.945 202.763L327.575 203.493L327.055 204.343C325.735 206.413 323.973 208.165 321.895 209.473C320.25 210.503 318.469 211.301 316.605 211.843C313.677 212.676 310.649 213.11 307.605 213.133C304.952 213.164 302.299 213.02 299.665 212.703C289.913 211.393 280.378 208.8 271.305 204.993L274.005 195.393L280.685 196.133C282.945 196.373 285.185 196.543 287.405 196.713C291.729 197.061 296.068 197.191 300.405 197.103C302.414 197.056 304.418 196.882 306.405 196.583C307.991 196.401 309.544 195.993 311.015 195.373C311.387 195.227 311.727 195.009 312.015 194.733C312.095 194.603 311.905 194.733 311.675 194.923V195.023V194.813C311.711 194.566 311.764 194.322 311.835 194.083C311.975 193.352 312.075 192.614 312.135 191.873C312.323 187.9 312.166 183.918 311.665 179.973C311.145 175.733 310.505 171.373 309.665 167.063C308.055 158.353 306.075 149.323 303.975 140.833L323.285 135.463Z" fill="#F9B499"/>
<path d="M320.655 125.732C331.065 133.042 334.495 170.902 334.495 170.902L302.235 174.822C299.798 163.888 298.349 152.756 297.905 141.562C297.465 123.612 308.005 116.822 320.655 125.732Z" fill="#F6E9D1"/>
<path opacity="0.1" d="M320.655 125.732C331.065 133.042 334.495 170.902 334.495 170.902L302.235 174.822C299.798 163.888 298.349 152.756 297.905 141.562C297.465 123.612 308.005 116.822 320.655 125.732Z" fill="black"/>
<path d="M277.205 195.872L267.735 186.193L261.735 202.323C261.735 202.323 271.595 208.642 275.515 203.742L277.205 195.872Z" fill="#F9B499"/>
<path d="M256.805 184.853L252.545 198.293L261.855 202.243L267.735 186.253L256.805 184.853Z" fill="#F9B499"/>
</svg>
